<mxfile host="app.diagrams.net" modified="2023-07-28T19:26:19.410Z" agent="Mozilla/5.0 (Windows NT 10.0; Win64; x64) AppleWebKit/537.36 (KHTML, like Gecko) Chrome/114.0.0.0 Safari/537.36" etag="gjSIUR1H_okCNklxQwtA" version="21.6.5" type="github">
  <diagram name="PÃ¡gina-1" id="1KQfDy80RbB8u6IrMGHn">
    <mxGraphModel dx="1434" dy="788" grid="1" gridSize="10" guides="1" tooltips="1" connect="1" arrows="1" fold="1" page="1" pageScale="1" pageWidth="827" pageHeight="1169" math="0" shadow="0">
      <root>
        <mxCell id="0" />
        <mxCell id="1" parent="0" />
        <mxCell id="zkaKhEfLVjNbnVr2QY8X-1" value="DAG CUSTOMER Batch" style="whiteSpace=wrap;html=1;aspect=fixed;" vertex="1" parent="1">
          <mxGeometry x="90" y="340" width="80" height="80" as="geometry" />
        </mxCell>
        <mxCell id="zkaKhEfLVjNbnVr2QY8X-3" value="TOPICO&amp;nbsp;" style="whiteSpace=wrap;html=1;aspect=fixed;" vertex="1" parent="1">
          <mxGeometry x="240" y="250" width="80" height="80" as="geometry" />
        </mxCell>
        <mxCell id="zkaKhEfLVjNbnVr2QY8X-5" value="DAG RESULTADO MOTOR" style="whiteSpace=wrap;html=1;aspect=fixed;" vertex="1" parent="1">
          <mxGeometry x="720" y="250" width="80" height="80" as="geometry" />
        </mxCell>
        <mxCell id="zkaKhEfLVjNbnVr2QY8X-6" value="ONLINE" style="whiteSpace=wrap;html=1;aspect=fixed;" vertex="1" parent="1">
          <mxGeometry x="90" y="160" width="80" height="80" as="geometry" />
        </mxCell>
        <mxCell id="zkaKhEfLVjNbnVr2QY8X-7" value="" style="endArrow=classic;html=1;rounded=0;entryX=0;entryY=0.5;entryDx=0;entryDy=0;" edge="1" parent="1" target="zkaKhEfLVjNbnVr2QY8X-3">
          <mxGeometry width="50" height="50" relative="1" as="geometry">
            <mxPoint x="170" y="380" as="sourcePoint" />
            <mxPoint x="220" y="330" as="targetPoint" />
          </mxGeometry>
        </mxCell>
        <mxCell id="zkaKhEfLVjNbnVr2QY8X-8" value="" style="endArrow=classic;html=1;rounded=0;entryX=0;entryY=0.5;entryDx=0;entryDy=0;" edge="1" parent="1" target="zkaKhEfLVjNbnVr2QY8X-3">
          <mxGeometry width="50" height="50" relative="1" as="geometry">
            <mxPoint x="170" y="200" as="sourcePoint" />
            <mxPoint x="220" y="150" as="targetPoint" />
          </mxGeometry>
        </mxCell>
        <mxCell id="zkaKhEfLVjNbnVr2QY8X-10" value="" style="endArrow=classic;html=1;rounded=0;entryX=-0.025;entryY=0.6;entryDx=0;entryDy=0;entryPerimeter=0;exitX=1;exitY=0.563;exitDx=0;exitDy=0;exitPerimeter=0;" edge="1" parent="1" source="zkaKhEfLVjNbnVr2QY8X-4" target="zkaKhEfLVjNbnVr2QY8X-5">
          <mxGeometry width="50" height="50" relative="1" as="geometry">
            <mxPoint x="560" y="300" as="sourcePoint" />
            <mxPoint x="610" y="250" as="targetPoint" />
          </mxGeometry>
        </mxCell>
        <mxCell id="zkaKhEfLVjNbnVr2QY8X-11" value="" style="endArrow=classic;html=1;rounded=0;entryX=-0.025;entryY=0.6;entryDx=0;entryDy=0;entryPerimeter=0;" edge="1" parent="1" target="zkaKhEfLVjNbnVr2QY8X-4">
          <mxGeometry width="50" height="50" relative="1" as="geometry">
            <mxPoint x="560" y="300" as="sourcePoint" />
            <mxPoint x="718" y="298" as="targetPoint" />
          </mxGeometry>
        </mxCell>
        <mxCell id="zkaKhEfLVjNbnVr2QY8X-4" value="FICO" style="whiteSpace=wrap;html=1;aspect=fixed;" vertex="1" parent="1">
          <mxGeometry x="480" y="210" width="160" height="160" as="geometry" />
        </mxCell>
        <mxCell id="zkaKhEfLVjNbnVr2QY8X-12" value="ORACLE CHAVE VALOR" style="shape=cylinder3;whiteSpace=wrap;html=1;boundedLbl=1;backgroundOutline=1;size=15;" vertex="1" parent="1">
          <mxGeometry x="370" y="250" width="60" height="80" as="geometry" />
        </mxCell>
        <mxCell id="zkaKhEfLVjNbnVr2QY8X-13" value="" style="endArrow=classic;html=1;rounded=0;entryX=-0.1;entryY=0.575;entryDx=0;entryDy=0;entryPerimeter=0;exitX=1;exitY=0.588;exitDx=0;exitDy=0;exitPerimeter=0;" edge="1" parent="1" source="zkaKhEfLVjNbnVr2QY8X-3" target="zkaKhEfLVjNbnVr2QY8X-12">
          <mxGeometry width="50" height="50" relative="1" as="geometry">
            <mxPoint x="320" y="300" as="sourcePoint" />
            <mxPoint x="370" y="250" as="targetPoint" />
          </mxGeometry>
        </mxCell>
        <mxCell id="zkaKhEfLVjNbnVr2QY8X-14" value="" style="endArrow=classic;html=1;rounded=0;entryX=-0.037;entryY=0.563;entryDx=0;entryDy=0;entryPerimeter=0;" edge="1" parent="1" target="zkaKhEfLVjNbnVr2QY8X-4">
          <mxGeometry width="50" height="50" relative="1" as="geometry">
            <mxPoint x="430" y="300" as="sourcePoint" />
            <mxPoint x="480" y="250" as="targetPoint" />
          </mxGeometry>
        </mxCell>
        <mxCell id="zkaKhEfLVjNbnVr2QY8X-16" value="ZCRED" style="whiteSpace=wrap;html=1;aspect=fixed;" vertex="1" parent="1">
          <mxGeometry x="480" y="10" width="160" height="160" as="geometry" />
        </mxCell>
        <mxCell id="zkaKhEfLVjNbnVr2QY8X-17" value="&lt;font style=&quot;font-size: 11px;&quot;&gt;DASH COMPARATIVO&lt;/font&gt;" style="whiteSpace=wrap;html=1;aspect=fixed;" vertex="1" parent="1">
          <mxGeometry x="720" y="50" width="80" height="80" as="geometry" />
        </mxCell>
        <mxCell id="zkaKhEfLVjNbnVr2QY8X-18" value="" style="endArrow=classic;html=1;rounded=0;entryX=-0.05;entryY=0.613;entryDx=0;entryDy=0;entryPerimeter=0;" edge="1" parent="1" target="zkaKhEfLVjNbnVr2QY8X-17">
          <mxGeometry width="50" height="50" relative="1" as="geometry">
            <mxPoint x="640" y="100" as="sourcePoint" />
            <mxPoint x="690" y="50" as="targetPoint" />
          </mxGeometry>
        </mxCell>
        <mxCell id="zkaKhEfLVjNbnVr2QY8X-19" value="" style="endArrow=classic;html=1;rounded=0;entryX=0.5;entryY=1;entryDx=0;entryDy=0;" edge="1" parent="1" target="zkaKhEfLVjNbnVr2QY8X-17">
          <mxGeometry width="50" height="50" relative="1" as="geometry">
            <mxPoint x="760" y="250" as="sourcePoint" />
            <mxPoint x="810" y="200" as="targetPoint" />
          </mxGeometry>
        </mxCell>
      </root>
    </mxGraphModel>
  </diagram>
</mxfile>
